<svg width="76" height="76" viewBox="0 0 76 76" fill="none" xmlns="http://www.w3.org/2000/svg">
<path d="M72.6692 0.14227L1.31922 27.8423C0.922451 27.9952 0.582724 28.2671 0.346651 28.6208C0.110579 28.9744 -0.0102712 29.3925 0.000684133 29.8175C0.0116395 30.2426 0.153863 30.6539 0.40784 30.9949C0.661817 31.3359 1.0151 31.59 1.41922 31.7223L33.2692 42.2123L43.7392 74.0623C43.8715 74.4664 44.1256 74.8197 44.4666 75.0736C44.8076 75.3276 45.2189 75.4698 45.6439 75.4808C46.069 75.4918 46.4871 75.3709 46.8407 75.1348C47.1944 74.8988 47.4663 74.559 47.6192 74.1623L75.3392 2.81227C75.4856 2.43914 75.5199 2.03142 75.438 1.63907C75.3561 1.24671 75.1615 0.886776 74.8781 0.603361C74.5947 0.319946 74.2348 0.125366 73.8424 0.0434655C73.4501 -0.0384347 73.0423 -0.0040973 72.6692 0.14227ZM34.3392 38.2223L8.17922 29.6123L65.0192 7.54227L34.3392 38.2223Z" fill="#4b4b4b"/>
</svg>
