<svg width="123" height="123" viewBox="0 0 123 123" fill="none" xmlns="http://www.w3.org/2000/svg">
<path d="M61.184 0.227C27.451 0.227 0.0179992 27.65 0.00599921 61.357C-0.0106138 72.867 3.23062 84.1466 9.355 93.892L10.81 96.205L4.631 118.763L27.777 112.694L30.012 114.018C39.399 119.589 50.162 122.535 61.138 122.541H61.161C94.868 122.541 122.301 95.115 122.314 61.406C122.339 53.3716 120.771 45.4119 117.699 37.9878C114.628 30.5638 110.114 23.8227 104.419 18.155C98.7559 12.4563 92.0187 7.93745 84.5974 4.86009C77.1761 1.78274 69.218 0.207985 61.184 0.227Z" fill="url(#paint0_linear_3_8)"/>
<path fill-rule="evenodd" clip-rule="evenodd" d="M42.772 30.603C41.394 27.542 39.944 27.48 38.635 27.427L35.111 27.384C33.885 27.384 31.893 27.844 30.209 29.684C28.525 31.524 23.774 35.971 23.774 45.016C23.774 54.061 30.362 62.801 31.28 64.029C32.198 65.257 43.998 84.41 62.685 91.779C78.214 97.903 81.374 96.685 84.746 96.379C88.118 96.073 95.623 91.932 97.154 87.639C98.685 83.346 98.686 79.668 98.227 78.899C97.768 78.13 96.542 77.673 94.702 76.753C92.862 75.833 83.825 71.386 82.14 70.772C80.455 70.158 79.23 69.853 78.003 71.693C76.776 73.533 73.257 77.672 72.184 78.899C71.111 80.126 70.04 80.28 68.2 79.361C66.36 78.442 60.44 76.5 53.416 70.237C47.951 65.364 44.262 59.346 43.188 57.507C42.114 55.668 43.074 54.672 43.996 53.756C44.821 52.932 45.834 51.609 46.755 50.536C47.676 49.463 47.979 48.696 48.591 47.471C49.203 46.246 48.898 45.17 48.438 44.251C47.978 43.332 44.406 34.239 42.772 30.603Z" fill="white"/>
<defs>
<linearGradient id="paint0_linear_3_8" x1="59.915" y1="7.567" x2="60.535" y2="112.092" gradientUnits="userSpaceOnUse">
<stop stop-color="#57D163"/>
<stop offset="1" stop-color="#23B33A"/>
</linearGradient>
</defs>
</svg>
