<svg width="14" height="12" viewBox="0 0 14 12" fill="none" xmlns="http://www.w3.org/2000/svg">
<path d="M0.161538 6.54358C0.0538462 6.43469 0 6.27135 0 6.16247C0 6.05358 0.0538462 5.89024 0.161538 5.78135L0.915385 5.01913C1.13077 4.80135 1.45385 4.80135 1.66923 5.01913L1.72308 5.07358L4.68462 8.2858C4.79231 8.39469 4.95385 8.39469 5.06154 8.2858L12.2769 0.718021H12.3308C12.5462 0.500243 12.8692 0.500243 13.0846 0.718021L13.8385 1.48024C14.0538 1.69802 14.0538 2.02469 13.8385 2.24247L5.22308 11.2802C5.11538 11.3891 5.00769 11.4436 4.84615 11.4436C4.68462 11.4436 4.57692 11.3891 4.46923 11.2802L0.269231 6.70691L0.161538 6.54358Z" fill="#19304B"/>
</svg>
