<svg width="70" height="70" viewBox="0 0 70 70" fill="none" xmlns="http://www.w3.org/2000/svg">
<circle cx="35" cy="35" r="35" fill="#E7EAEB"/>
<path fill-rule="evenodd" clip-rule="evenodd" d="M42.5137 18.9161C42.5137 14.5512 46.0992 11 50.5062 11C54.9132 11 58.4987 14.5512 58.4987 18.9161C58.4987 22.7067 52.8207 30.3846 51.5025 32.1168L51.5024 32.2033C51.5021 32.7528 51.5018 33.2908 51.4887 33.7858C51.4741 34.323 51.0292 34.7492 50.4906 34.7492H50.4633C49.9112 34.7347 49.476 34.2795 49.4906 33.7336C49.5037 33.2512 49.504 32.7278 49.5043 32.1935L49.5044 32.1094C48.1774 30.3652 42.5137 22.7022 42.5137 18.9161ZM44.5118 18.9166C44.5118 21.4358 48.31 27.1313 50.5062 30.124C52.7024 27.1312 56.5006 21.4358 56.5006 18.9166C56.5006 15.6426 53.8118 12.9795 50.5062 12.9795C47.2007 12.9795 44.5118 15.6426 44.5118 18.9166Z" fill="#19304B"/>
<path d="M50.5064 16.9375C49.3734 16.9375 48.4512 17.8598 48.4512 18.9927C48.4512 20.1257 49.3734 21.0479 50.5064 21.0479C51.6394 21.0479 52.5616 20.1258 52.5616 18.9927C52.5616 17.8598 51.6394 16.9375 50.5064 16.9375Z" fill="#19304B"/>
<path fill-rule="evenodd" clip-rule="evenodd" d="M16.9375 38.8592C16.9375 35.5851 19.6008 32.9219 22.8748 32.9219C26.1489 32.9219 28.8121 35.5851 28.8121 38.8592C28.8121 42.1332 26.1489 44.7965 22.8748 44.7965C19.6008 44.7965 16.9375 42.1332 16.9375 38.8592ZM18.9165 38.8595C18.9165 41.0426 20.6918 42.8177 22.8748 42.8177C25.0578 42.8177 26.833 41.0427 26.833 38.8596C26.833 36.6765 25.0578 34.9014 22.8748 34.9014C20.6918 34.9014 18.9165 36.6764 18.9165 38.8595Z" fill="#19304B"/>
<path d="M38.1763 46.6929C37.6228 46.4907 37.0068 46.7489 36.7927 47.2671C36.3135 48.4311 35.7141 49.7885 34.9059 51.0321C34.5979 51.5061 34.7576 52.1245 35.261 52.4141C35.4354 52.5142 35.6274 52.5613 35.8175 52.5613C36.1778 52.5613 36.5296 52.3905 36.7312 52.0804C37.6272 50.7004 38.2734 49.24 38.7872 47.9935C39.0002 47.4761 38.7266 46.8941 38.1763 46.6929Z" fill="#19304B"/>
<path d="M32.3027 53.6977C31.355 54.5143 30.2781 55.1291 29.009 55.5781C28.5121 55.7538 28.2405 56.3344 28.4022 56.8748C28.5324 57.3088 28.9028 57.5851 29.3018 57.5851C29.3988 57.5851 29.4976 57.5689 29.5946 57.5348C31.0603 57.0165 32.3663 56.2682 33.4775 55.3108C33.8867 54.9572 33.956 54.3104 33.6318 53.8654C33.3048 53.4215 32.7109 53.3421 32.3027 53.6977Z" fill="#19304B"/>
<path d="M41.5208 39.8989C39.9196 40.7922 39.0299 42.343 38.4992 43.4309C38.2671 43.906 38.4708 44.476 38.954 44.7032C39.0896 44.7675 39.2326 44.7973 39.3728 44.7973C39.7347 44.7973 40.0815 44.598 40.2483 44.2562C40.9219 42.8748 41.6098 42.0431 42.4796 41.5568C42.9448 41.297 43.1087 40.7148 42.8434 40.2565C42.5801 39.7984 41.9898 39.6372 41.5208 39.8989Z" fill="#19304B"/>
<path d="M50.3177 36.7625C49.8871 36.4274 49.2954 36.5561 49.0009 37.054C48.6889 37.584 48.0499 38.3128 46.1172 38.5118C45.5958 38.566 45.2106 39.0948 45.2578 39.695C45.3023 40.2611 45.7162 40.6866 46.2015 40.6866C46.2302 40.6866 46.2589 40.6856 46.2876 40.6823C48.3406 40.4706 49.7417 39.6832 50.5715 38.2754C50.8651 37.7776 50.7511 37.0998 50.3177 36.7625Z" fill="#19304B"/>
<path fill-rule="evenodd" clip-rule="evenodd" d="M34.7492 38.8028C34.7492 45.6047 28.3418 53.2281 25.2194 56.5418C25.5601 56.6777 25.8126 56.9805 25.8422 57.3687C25.8838 57.9111 25.4751 58.3833 24.93 58.4247C24.2806 58.4737 23.5955 58.4987 22.8746 58.4987C22.6302 58.4987 22.3856 58.4093 22.1953 58.2294C21.7382 57.7995 11 47.5977 11 38.8028C11 32.1766 16.2164 26.9854 22.8746 26.9854C29.5328 26.9854 34.7492 32.1766 34.7492 38.8028ZM12.9791 38.802C12.9791 45.5533 20.537 53.7509 22.8746 56.1244C25.2122 53.7508 32.7702 45.5533 32.7702 38.802C32.7702 33.2799 28.4234 28.9541 22.8746 28.9541C17.3258 28.9541 12.9791 33.2799 12.9791 38.802Z" fill="#19304B"/>
</svg>
