<svg width="70" height="70" viewBox="0 0 70 70" fill="none" xmlns="http://www.w3.org/2000/svg">
<circle cx="35" cy="35" r="35" fill="#E7EAEB"/>
<path fill-rule="evenodd" clip-rule="evenodd" d="M36.9194 30.4136C37.31 25.1587 41.6737 21 46.9924 21C52.5676 21 57.1041 25.5667 57.1041 31.1785V44.1246C57.1041 44.6362 56.6922 45.0496 56.1848 45.0496H46.9924V57.0347H52.2959C52.9261 57.0347 53.4688 57.5614 53.4401 57.8525C53.4388 57.8661 53.4375 57.8805 53.4363 57.8955L53.4322 57.9453C53.407 58.2605 53.3648 58.7882 52.9261 58.9244H17.6676C16.8734 58.3743 16.8734 58.3743 16.8734 57.8525C16.8734 57.4128 16.9696 57.3673 17.3941 57.1668C17.4733 57.1293 17.564 57.0865 17.6676 57.0347H23.0921V45.0496H13.8997C13.3923 45.0496 12.9805 44.6362 12.9805 44.1246V31.1785C12.9805 25.5667 17.5169 21 23.0921 21C28.4109 21 32.7736 25.1587 33.1652 30.4136C33.7783 30.3155 34.4025 30.2499 35.0423 30.2499C35.6821 30.2499 36.3062 30.3155 36.9194 30.4136ZM45.1539 57.0747V42.2795C45.1539 36.6667 40.6175 32.1 35.0423 32.1C29.4671 32.1 24.9306 36.6667 24.9306 42.2795V57.0747H45.1539ZM14.8189 43.1998V31.1787C14.8189 26.5861 18.5308 22.8501 23.0921 22.8501C27.5422 22.8501 31.1722 26.4076 31.3487 30.8448C26.5632 32.4154 23.0921 36.9441 23.0921 42.2795V43.1998H14.8189ZM46.9924 43.1998H55.2656V31.1787C55.2656 26.5861 51.5537 22.8501 46.9924 22.8501C42.5424 22.8501 38.9123 26.4076 38.7358 30.8448C43.5214 32.4154 46.9924 36.9451 46.9924 42.2795V43.1998Z" fill="#19304B"/>
<path fill-rule="evenodd" clip-rule="evenodd" d="M35.0886 38.6862V46.2781Z" fill="#19304B"/>
<path d="M35.0886 38.6862V46.2781" stroke="#19304B" stroke-width="2" stroke-linecap="round"/>
<path fill-rule="evenodd" clip-rule="evenodd" d="M32.7536 41.3743H37.627Z" fill="#19304B"/>
<path d="M32.7536 41.3743H37.627" stroke="#19304B" stroke-width="2" stroke-linecap="round"/>
</svg>
