<svg width="70" height="70" viewBox="0 0 70 70" fill="none" xmlns="http://www.w3.org/2000/svg">
<circle cx="35" cy="35" r="35" fill="#E7EAEB"/>
<path fill-rule="evenodd" clip-rule="evenodd" d="M27.3252 15H44.8935C49.8588 15 53.8984 19.068 53.8984 24.0683C53.8984 26.4734 52.9731 28.7391 51.2929 30.4478C49.8207 31.9451 47.9187 32.8634 45.8646 33.084V36.2483C45.8646 36.6079 45.6496 36.932 45.3197 37.0697C45.2105 37.1152 45.0957 37.1374 44.982 37.1374C44.7522 37.1374 44.5264 37.0471 44.3576 36.877L40.6434 33.1367H31.6636L27.9494 36.8771C27.697 37.1314 27.3172 37.2074 26.9873 37.0698C26.6575 36.9321 26.4424 36.6079 26.4424 36.2484V33.0935C21.89 32.6452 18.3203 28.7687 18.3203 24.0683C18.3203 19.068 22.3599 15 27.3252 15ZM44.099 32.2467C44.099 31.7594 44.4885 31.3629 44.9724 31.3577C48.9206 31.3153 52.1327 28.0454 52.1327 24.0685C52.1327 20.0487 48.8852 16.7783 44.8935 16.7783H27.3252C23.3334 16.7783 20.0859 20.0487 20.0859 24.0685C20.0859 28.0884 23.3334 31.3588 27.3252 31.3588C27.8127 31.3588 28.208 31.7568 28.208 32.2478V34.1022L30.6737 31.6192C30.8392 31.4525 31.0638 31.3588 31.2979 31.3588H41.009C41.2432 31.3588 41.4678 31.4525 41.6333 31.6192L44.099 34.1022V32.2467Z" fill="#19304B"/>
<path fill-rule="evenodd" clip-rule="evenodd" d="M41.3064 19.7566C41.655 19.4204 42.2201 19.4204 42.5687 19.7566C42.9172 20.0928 42.9172 20.6378 42.5687 20.9739L41.628 21.8811C41.8917 22.5027 42.0381 23.1822 42.0381 23.8943C42.0381 26.837 39.5557 29.231 36.5044 29.231C33.4531 29.231 30.9707 26.837 30.9707 23.8943C30.9707 20.9517 33.4531 18.5576 36.5044 18.5576C38.16 18.5576 39.647 19.2634 40.6619 20.3781L41.3064 19.7566ZM32.7558 23.8946C32.7558 25.888 34.4374 27.5098 36.5044 27.5098C38.5714 27.5098 40.2531 25.888 40.2531 23.8946C40.2531 23.6793 40.2324 23.4687 40.1946 23.2636L37.8828 25.4932C37.7085 25.6613 37.48 25.7453 37.2516 25.7453C37.0232 25.7453 36.7948 25.6613 36.6205 25.4932L35.0586 23.9868C34.7101 23.6506 34.7101 23.1056 35.0586 22.7695C35.4072 22.4333 35.9724 22.4333 36.3209 22.7695L37.2517 23.6671L39.3973 21.598C38.7092 20.7932 37.6678 20.2794 36.5044 20.2794C34.4374 20.2794 32.7558 21.9011 32.7558 23.8946Z" fill="#19304B"/>
<path fill-rule="evenodd" clip-rule="evenodd" d="M26.2305 44.8297C26.8801 44.0547 27.2706 43.0649 27.2706 41.9876V40.4451C27.2706 37.9671 25.2065 35.9512 22.6693 35.9512C20.1322 35.9512 18.0681 37.9671 18.0681 40.4451V41.9876C18.0681 43.0649 18.4586 44.0547 19.1081 44.8297C15.9743 45.3395 13.5771 48.0049 13.5771 51.2081V55.2415C13.5771 55.7223 13.9762 56.1121 14.4685 56.1121H30.8701C31.3624 56.1121 31.7615 55.7223 31.7615 55.2415V51.2081C31.7615 48.0049 29.3644 45.3395 26.2305 44.8297ZM19.8508 40.4451C19.8508 38.9272 21.1152 37.6924 22.6693 37.6924C24.2235 37.6924 25.4878 38.9272 25.4878 40.4451V41.9876C25.4878 43.5055 24.2235 44.7403 22.6693 44.7403C21.1152 44.7403 19.8508 43.5055 19.8508 41.9876V40.4451ZM15.3599 51.2079V54.3707H29.9787V51.2079C29.9787 48.6017 27.8077 46.4814 25.1393 46.4814H23.5607V48.6782C23.5607 49.159 23.1616 49.5488 22.6693 49.5488C22.177 49.5488 21.7779 49.159 21.7779 48.6782V46.4814H20.1994C17.5309 46.4814 15.3599 48.6017 15.3599 51.2079Z" fill="#19304B"/>
<path fill-rule="evenodd" clip-rule="evenodd" d="M53.1114 44.8297C53.7609 44.0547 54.1515 43.0649 54.1515 41.9876V40.4451C54.1515 37.9671 52.0874 35.9512 49.5502 35.9512C47.013 35.9512 44.9489 37.9671 44.9489 40.4451V41.9876C44.9489 43.0649 45.3394 44.0547 45.989 44.8297C42.8551 45.3395 40.458 48.0049 40.458 51.2081V55.2415C40.458 55.7223 40.8571 56.1121 41.3494 56.1121H57.751C58.2433 56.1121 58.6424 55.7223 58.6424 55.2415V51.2081C58.6424 48.0049 56.2452 45.3395 53.1114 44.8297ZM46.7317 40.4451C46.7317 38.9272 47.9961 37.6924 49.5502 37.6924C51.1043 37.6924 52.3687 38.9272 52.3687 40.4451V41.9876C52.3687 43.5055 51.1043 44.7403 49.5502 44.7403C47.9961 44.7403 46.7317 43.5055 46.7317 41.9876V40.4451ZM42.2408 51.2079V54.3707H56.8596V51.2079C56.8596 48.6017 54.6886 46.4814 52.0201 46.4814H50.4416V48.6782C50.4416 49.159 50.0425 49.5488 49.5502 49.5488C49.0579 49.5488 48.6588 49.159 48.6588 48.6782V46.4814H47.0802C44.4118 46.4814 42.2408 48.6017 42.2408 51.2079Z" fill="#19304B"/>
<path d="M50.1094 51.2046C49.9623 51.0575 49.7583 50.9736 49.5504 50.9736C49.3425 50.9736 49.1385 51.0575 48.9914 51.2046C48.8444 51.3517 48.7598 51.5558 48.7598 51.7639C48.7598 51.9727 48.8444 52.176 48.9914 52.3239C49.1385 52.471 49.3425 52.5549 49.5504 52.5549C49.7583 52.5549 49.9623 52.471 50.1094 52.3239C50.2564 52.176 50.341 51.9727 50.341 51.7639C50.341 51.5558 50.2564 51.3525 50.1094 51.2046Z" fill="#19304B"/>
<path d="M23.2285 51.2046C23.0814 51.0575 22.8775 50.9736 22.6695 50.9736C22.4616 50.9736 22.2576 51.0575 22.1106 51.2046C21.9635 51.3517 21.8789 51.5558 21.8789 51.7639C21.8789 51.9727 21.9635 52.176 22.1106 52.3239C22.2576 52.471 22.4616 52.5549 22.6695 52.5549C22.8775 52.5549 23.0814 52.471 23.2285 52.3239C23.3756 52.176 23.4602 51.9727 23.4602 51.7639C23.4602 51.5558 23.3756 51.3525 23.2285 51.2046Z" fill="#19304B"/>
</svg>
