<svg width="274" height="46" viewBox="0 0 274 46" fill="none" xmlns="http://www.w3.org/2000/svg">
<path d="M36.6314 34.2786V33.6661H43.0437L43.1777 36.5562H42.3738L41.8187 34.3935H39.3303C39.3112 34.8145 39.3112 35.293 39.2921 35.8289V39.4655C39.3112 39.9631 39.3112 40.4033 39.3303 40.8244L40.6894 41.0541V41.6666H36.6123V41.0541L37.8182 40.8244C37.8373 40.4033 37.8373 39.944 37.8373 39.4463C37.8373 38.9487 37.8565 38.5085 37.8565 38.1257V37.207C37.8565 36.8242 37.8565 36.384 37.8373 35.8672C37.8373 35.3696 37.8373 34.9102 37.8182 34.4891L36.6314 34.2786ZM44.6324 45.6859V45.1117L45.9915 44.882C46.0106 44.4227 46.0106 43.9633 46.0106 43.504C46.0106 43.0446 46.0297 42.6236 46.0297 42.1642V37.341C46.0297 36.8816 46.0297 36.4988 46.0106 36.1926C45.9915 35.8864 45.9915 35.5801 45.9723 35.2356L44.6133 35.0825V34.4891L47.0059 33.4556L47.2548 33.6279L47.3505 34.7188C48.1544 33.8767 49.0158 33.4556 49.9345 33.4556C50.5279 33.4556 51.1021 33.6279 51.5998 33.9532C52.1166 34.3169 52.5186 34.8145 52.7674 35.3887C53.3608 36.8242 53.3608 38.4511 52.7483 39.8866C52.4612 40.4799 52.0209 40.9775 51.485 41.3412C50.949 41.6857 50.3174 41.8771 49.6857 41.858C49.2837 41.858 48.9009 41.7814 48.5181 41.6283C48.097 41.4369 47.7142 41.1498 47.4079 40.7861V43.4657C47.4271 43.9251 47.427 44.3844 47.4462 44.8438L48.9966 45.0926V45.6859H44.6324ZM49.5517 34.4126C49.2455 34.4317 48.9392 34.4891 48.6521 34.6231C48.231 34.7954 47.829 35.0442 47.4845 35.3504V40.078C47.7524 40.3459 48.0778 40.5756 48.4224 40.7287C48.7095 40.8627 49.0349 40.9201 49.3603 40.9393C49.992 40.9393 50.6045 40.6522 51.0064 40.1737C51.4658 39.676 51.6955 38.8722 51.6955 37.7812C51.6955 36.6902 51.5041 35.8672 51.1021 35.293C50.7576 34.738 50.1834 34.4126 49.5517 34.4126ZM61.6298 41.8197C61.247 41.8388 60.8833 41.7048 60.5961 41.456C60.309 41.2072 60.1368 40.8818 60.0793 40.5182C59.6965 40.8818 59.2946 41.2263 58.8352 41.5134C58.4523 41.7431 58.0121 41.858 57.5527 41.858C56.9593 41.8771 56.4042 41.6857 55.9257 41.3412C55.4855 40.9775 55.2558 40.4608 55.2558 39.7717C55.2558 39.4463 55.3323 39.1401 55.4855 38.853C55.696 38.5085 56.0023 38.2405 56.3468 38.03C56.9019 37.6855 57.4953 37.4175 58.1078 37.2261C58.3758 37.1304 58.682 37.0347 59.0074 36.939C59.352 36.8433 59.6965 36.7476 60.0411 36.6711V36.25C60.0411 35.427 59.9071 34.8911 59.6582 34.6231C59.4094 34.3552 58.9883 34.2212 58.4332 34.2212C58.2992 34.2212 58.1461 34.2212 58.0121 34.2403C57.8398 34.2595 57.6867 34.2786 57.5144 34.3169L57.189 35.4079C57.0359 35.9438 56.7296 36.2117 56.2894 36.2117C55.8874 36.25 55.5429 35.9821 55.4855 35.5801V35.5036C55.6386 34.8719 56.0406 34.3169 56.6148 33.9915C57.2847 33.5896 58.0504 33.3982 58.816 33.4173C59.7157 33.4173 60.3856 33.647 60.8258 34.0872C61.2661 34.5274 61.4766 35.293 61.4766 36.3457V39.9248C61.4575 40.1928 61.5149 40.4608 61.6489 40.6904C61.7446 40.8244 61.9169 40.9201 62.0892 40.9201C62.2232 40.9201 62.3571 40.8818 62.472 40.8244C62.5868 40.7479 62.6825 40.6522 62.7591 40.5565L63.1036 40.9201C62.9314 41.2072 62.7017 41.4369 62.4146 41.6091C62.1849 41.7623 61.8977 41.8197 61.6298 41.8197ZM56.8062 39.5229C56.8062 39.9631 56.9402 40.2885 57.2082 40.4799C57.4953 40.6713 57.8398 40.7861 58.1844 40.767C58.3375 40.767 58.5098 40.7479 58.6629 40.6904C58.8543 40.633 59.0649 40.5373 59.2371 40.4416C59.4668 40.3076 59.7348 40.1162 60.0793 39.8674V37.2836C59.7922 37.3601 59.486 37.4558 59.1988 37.5515C58.9117 37.6472 58.682 37.7238 58.4906 37.7812C58.0887 37.9152 57.725 38.1257 57.3996 38.3745C57.189 38.5276 57.0359 38.7382 56.9211 38.9679C56.8445 39.1593 56.8062 39.3507 56.8062 39.5229ZM69.803 34.2786V33.6661H73.7078V34.2786L72.5211 34.5083C72.5211 34.9294 72.5019 35.3887 72.4828 35.8864V39.4463C72.4828 39.944 72.5019 40.4033 72.5211 40.8244L73.7078 41.0541V41.6666H69.7839V41.0541L70.9706 40.8244C70.9706 40.4033 70.9898 39.944 70.9898 39.4081C71.0089 38.8722 71.0089 38.3554 71.0089 37.8386H67.0659V39.3889C67.0659 39.9057 67.085 40.3842 67.1041 40.8053L68.2909 41.035V41.6474H64.3861V41.035L65.5728 40.8053C65.592 40.3842 65.592 39.9248 65.592 39.4272C65.592 38.9296 65.592 38.4894 65.6111 38.0874V37.1687C65.6111 36.7859 65.6111 36.3457 65.592 35.8289C65.5728 35.3122 65.592 34.8719 65.5728 34.4509L64.3861 34.2212V33.6087H68.2909V34.2212L67.1041 34.4509C67.085 34.8528 67.085 35.293 67.0659 35.7907V37.073H71.0089C71.0089 36.6902 71.0089 36.25 70.9898 35.7715C70.9706 35.293 70.9898 34.8528 70.9706 34.4317L69.803 34.2786ZM81.3451 34.2786V33.6661H85.2499V34.2786L84.044 34.5083C84.0249 34.9294 84.0249 35.3887 84.0058 35.8864V39.4463C84.0249 39.944 84.0249 40.3842 84.044 40.8053L85.2499 41.035V41.6474H81.3451V41.035L82.6467 40.7861V35.8864L78.34 40.4225V40.8053L79.6224 41.0541V41.6666H75.7176V41.0732L76.9235 40.8436C76.9235 40.4225 76.9427 39.9823 76.9427 39.4846C76.9618 38.987 76.9618 38.5468 76.9618 38.1448V37.2261C76.9618 36.8433 76.9618 36.4031 76.9427 35.8864C76.9235 35.3696 76.9427 34.9294 76.9235 34.5083L75.7176 34.2786V33.6661H79.6224V34.2786L78.34 34.5274V39.4272L82.6467 34.9294V34.5466L81.3451 34.2786ZM86.7621 36.4031L86.8961 33.6853H94.8014L94.9353 36.4031H94.1506L93.672 34.3935H91.6048C91.5856 34.8145 91.5857 35.293 91.5665 35.8289V39.4463C91.5857 39.944 91.5856 40.4033 91.6048 40.8244L92.983 41.0541V41.6666H88.7336V41.0541L90.1118 40.8244C90.1309 40.4033 90.1309 39.944 90.1309 39.4463C90.1309 38.9487 90.1501 38.5085 90.1501 38.1257V37.207C90.1501 36.8242 90.1501 36.3457 90.1309 35.8289C90.1118 35.3122 90.1118 34.8337 90.1118 34.3935H88.0445L87.566 36.4031H86.7621ZM102.037 34.2786V33.6661H105.961V34.2786L104.774 34.5083C104.774 34.9294 104.755 35.3887 104.736 35.8864V39.4463C104.736 39.944 104.755 40.4033 104.774 40.8244L105.961 41.0541V41.6666H102.037V41.0541L103.223 40.8244C103.243 40.4033 103.243 39.944 103.243 39.4081C103.243 38.8722 103.262 38.3554 103.262 37.8386H99.3187V39.3889C99.3378 39.9057 99.3378 40.3842 99.3569 40.8053L100.544 41.035V41.6474H96.6581V41.035L97.8639 40.8053C97.8831 40.3842 97.8831 39.9248 97.8831 39.4272C97.8831 38.9296 97.8831 38.4894 97.9022 38.0874V37.1687C97.9022 36.7859 97.9022 36.3457 97.8831 35.8289C97.8639 35.3122 97.8831 34.8719 97.8639 34.4509L96.6581 34.2403V33.6279H100.563V34.2403L99.3761 34.47C99.357 34.8719 99.357 35.3122 99.3378 35.8098V37.0922H103.281C103.281 36.7094 103.281 36.2691 103.262 35.7907C103.243 35.3122 103.262 34.8719 103.243 34.4509L102.037 34.2786ZM114.325 41.8388C113.942 41.858 113.579 41.724 113.292 41.4943C113.024 41.2455 112.832 40.9201 112.775 40.5565C112.392 40.9393 111.99 41.2646 111.55 41.5709C111.167 41.8005 110.727 41.9154 110.267 41.9154C109.674 41.9345 109.119 41.7431 108.64 41.3986C108.2 41.0349 107.97 40.5182 107.97 39.8291C107.97 39.5038 108.047 39.1975 108.2 38.9104C108.411 38.5659 108.717 38.298 109.062 38.0874C109.617 37.7429 110.21 37.475 110.822 37.2836C111.071 37.1879 111.378 37.0922 111.722 36.9965C112.067 36.9008 112.411 36.8051 112.756 36.7285V36.3074C112.756 35.4844 112.622 34.9485 112.373 34.6805C112.124 34.4126 111.703 34.2786 111.148 34.2786C111.014 34.2786 110.861 34.2786 110.727 34.2978C110.555 34.3169 110.401 34.336 110.229 34.3743L109.904 35.4653C109.751 36.0012 109.444 36.2691 109.004 36.2691C108.602 36.3266 108.258 36.0395 108.2 35.6375C108.2 35.6184 108.2 35.5993 108.2 35.5801C108.353 34.9485 108.755 34.3935 109.329 34.0681C109.999 33.6661 110.765 33.4747 111.531 33.4939C112.43 33.4939 113.1 33.7236 113.541 34.1638C113.981 34.604 114.191 35.3504 114.191 36.4223V40.0014C114.172 40.2694 114.23 40.5373 114.364 40.767C114.459 40.901 114.632 40.9967 114.804 40.9967C114.938 40.9967 115.072 40.9584 115.187 40.901C115.302 40.8244 115.397 40.7287 115.474 40.633L115.818 40.9967C115.646 41.2838 115.416 41.5134 115.129 41.6857C114.88 41.7623 114.593 41.8388 114.325 41.8388ZM109.502 39.542C109.502 39.9823 109.636 40.3076 109.904 40.499C110.191 40.6904 110.535 40.8053 110.88 40.7861C111.033 40.7861 111.205 40.767 111.358 40.7096C111.55 40.6522 111.741 40.5565 111.914 40.4608C112.143 40.3268 112.411 40.1354 112.756 39.8866V37.3027C112.469 37.3793 112.162 37.475 111.894 37.5707C111.626 37.6663 111.378 37.7429 111.186 37.8003C110.784 37.9343 110.421 38.1448 110.095 38.3937C109.885 38.5468 109.731 38.7573 109.617 38.987C109.54 39.1593 109.502 39.3507 109.502 39.542ZM120.948 37.5898H122.097V37.207C122.097 36.8242 122.097 36.3457 122.077 35.8289C122.058 35.293 122.058 34.8337 122.058 34.3935H120.776C119.608 34.3935 119.034 34.8911 119.034 35.9055C119.034 36.518 119.187 36.9582 119.513 37.2261C119.934 37.4941 120.45 37.6281 120.948 37.5898ZM116.584 41.6474V41.035L117.847 40.8053L118.422 39.5229C118.575 39.1593 118.804 38.8339 119.091 38.5659C119.34 38.3171 119.647 38.1257 119.972 37.9917C119.111 37.9343 118.498 37.6855 118.115 37.2836C117.33 36.4223 117.407 35.1016 118.249 34.3169L118.307 34.2786C118.804 33.8575 119.589 33.647 120.642 33.647H124.757V34.2595L123.551 34.4891C123.532 34.9102 123.532 35.3696 123.513 35.8672V39.4272C123.513 39.9248 123.532 40.3842 123.551 40.8053L124.757 41.035V41.6474H120.872V41.035L122.058 40.8053C122.058 40.4225 122.077 39.9823 122.077 39.5229C122.077 39.0636 122.097 38.6425 122.097 38.2405H121.312C121.082 38.2214 120.872 38.2788 120.661 38.3554C120.508 38.4511 120.393 38.5659 120.297 38.719C120.202 38.8913 120.087 39.1018 119.934 39.3889L119.034 41.1498C118.938 41.3603 118.785 41.5326 118.594 41.6283C118.326 41.7431 118.039 41.8005 117.732 41.7814C117.503 41.7814 117.273 41.7623 117.043 41.7048C116.909 41.7431 116.756 41.7048 116.584 41.6474ZM131.265 41.6474V41.035L132.471 40.7861V34.5274L131.284 34.2595V33.647H134.29L136.912 39.5038L139.496 33.647H142.482V34.2595L141.295 34.4891C141.276 34.9102 141.276 35.3696 141.257 35.8672V39.4272C141.257 39.9248 141.276 40.3842 141.295 40.8053L142.482 41.035V41.6474H138.558V41.035L139.86 40.8053V38.1066L139.936 34.2978L136.988 40.9775H136.127L133.141 34.336L133.294 38.1257V40.7861L134.462 41.0541V41.6666L131.265 41.6474ZM150.827 41.8197C150.445 41.8388 150.081 41.7048 149.794 41.456C149.507 41.2072 149.334 40.8818 149.277 40.5182C148.894 40.8818 148.492 41.2263 148.052 41.5134C147.669 41.7431 147.21 41.858 146.77 41.858C146.176 41.8771 145.621 41.6857 145.143 41.3412C144.702 40.9775 144.473 40.4608 144.473 39.7717C144.473 39.4463 144.549 39.1401 144.702 38.853C144.913 38.5085 145.219 38.2405 145.564 38.03C146.119 37.6855 146.712 37.4175 147.325 37.2261C147.593 37.1304 147.899 37.0347 148.224 36.939C148.55 36.8433 148.913 36.7476 149.258 36.6711V36.25C149.258 35.427 149.124 34.8911 148.875 34.6231C148.626 34.3552 148.205 34.2212 147.65 34.2212C147.516 34.2212 147.363 34.2212 147.229 34.2403C147.057 34.2595 146.904 34.2786 146.731 34.3169L146.406 35.4079C146.253 35.9438 145.946 36.2117 145.506 36.2117C145.104 36.25 144.76 35.9821 144.702 35.5801C144.702 35.561 144.702 35.5418 144.702 35.5036C144.855 34.8719 145.277 34.3169 145.832 33.9915C146.502 33.5896 147.267 33.3982 148.033 33.4173C148.932 33.4173 149.602 33.647 150.043 34.0872C150.483 34.5274 150.693 35.293 150.693 36.3457V39.9248C150.674 40.1928 150.732 40.4608 150.866 40.6904C150.961 40.8244 151.134 40.9201 151.306 40.9201C151.44 40.9201 151.574 40.8818 151.689 40.8244C151.804 40.7479 151.899 40.6522 151.976 40.5565L152.32 40.9201C152.148 41.2072 151.919 41.4369 151.631 41.6091C151.402 41.7623 151.134 41.8197 150.827 41.8197ZM146.023 39.5229C146.023 39.9631 146.157 40.2885 146.406 40.4799C146.693 40.6713 147.038 40.7861 147.382 40.767C147.535 40.767 147.707 40.7479 147.861 40.6904C148.052 40.633 148.243 40.5373 148.416 40.4416C148.645 40.3076 148.913 40.1162 149.258 39.8674V37.2836C148.952 37.3601 148.665 37.4558 148.377 37.5515C148.09 37.6472 147.861 37.7238 147.669 37.7812C147.267 37.9152 146.904 38.1066 146.578 38.3745C146.368 38.5276 146.214 38.7382 146.1 38.9679C146.061 39.1593 146.023 39.3507 146.023 39.5229ZM157.508 41.8771C156.34 41.8771 155.402 41.4943 154.694 40.7479C153.986 40.0014 153.66 38.9679 153.66 37.6855C153.641 36.9008 153.833 36.116 154.215 35.4079C154.905 34.1829 156.206 33.4365 157.623 33.4365C158.101 33.4365 158.599 33.5322 159.039 33.7236C159.46 33.8958 159.824 34.1638 160.111 34.5083C160.398 34.8145 160.57 35.1973 160.647 35.6184C160.609 36.0203 160.245 36.2883 159.862 36.25C159.632 36.2691 159.384 36.1926 159.211 36.0203C159.077 35.8481 158.962 35.6567 158.924 35.427L158.618 34.3169C158.465 34.2595 158.312 34.2212 158.139 34.2212C157.986 34.2021 157.852 34.1829 157.699 34.1829C156.991 34.1638 156.321 34.4891 155.881 35.0251C155.421 35.5801 155.172 36.4031 155.172 37.475C155.172 38.5468 155.421 39.3507 155.938 39.8866C156.436 40.4416 157.163 40.7479 157.91 40.7287C158.388 40.7287 158.848 40.633 159.269 40.4033C159.69 40.1737 160.034 39.8483 160.283 39.4463L160.704 39.676C160.494 40.3268 160.092 40.8818 159.537 41.2838C158.924 41.7048 158.216 41.8962 157.508 41.8771ZM162.236 36.4031L162.37 33.6853H170.275L170.409 36.4031H169.624L169.146 34.3935H167.097C167.078 34.8145 167.078 35.293 167.059 35.8289V39.4463C167.059 39.944 167.078 40.4033 167.097 40.8244L168.456 41.0541V41.6666H164.226V41.0541L165.604 40.8244C165.604 40.4033 165.624 39.944 165.624 39.4463C165.624 38.9487 165.643 38.5085 165.643 38.1257V37.207C165.643 36.8242 165.643 36.3457 165.624 35.8289C165.604 35.293 165.604 34.8337 165.604 34.3935H163.537L163.059 36.4031H162.236ZM175.941 34.2403C175.596 34.2403 175.271 34.336 174.964 34.5083C174.62 34.7188 174.333 35.0059 174.122 35.3696C173.873 35.8481 173.72 36.384 173.682 36.9199H176.802C177.204 36.9199 177.472 36.8433 177.606 36.6711C177.74 36.4988 177.816 36.2691 177.816 36.0586C177.816 35.7524 177.721 35.427 177.568 35.1782C177.414 34.8911 177.185 34.6614 176.898 34.5083C176.611 34.3169 176.285 34.2212 175.941 34.2403ZM175.921 41.8962C174.773 41.8962 173.854 41.5326 173.146 40.8053C172.457 40.078 172.093 39.0636 172.112 37.762C172.093 36.9773 172.285 36.2117 172.648 35.5036C172.993 34.8911 173.491 34.3743 174.084 34.0107C174.677 33.647 175.366 33.4747 176.055 33.4747C176.611 33.4747 177.166 33.5896 177.663 33.8575C178.142 34.1064 178.544 34.5083 178.812 34.9676C179.118 35.4844 179.252 36.0969 179.233 36.6902C179.233 36.8625 179.214 37.0539 179.195 37.2261C179.175 37.3601 179.156 37.4941 179.118 37.6281H173.682C173.701 38.6616 173.969 39.4463 174.467 39.9823C174.984 40.5182 175.711 40.8244 176.457 40.7861C176.936 40.8053 177.395 40.6904 177.816 40.4608C178.199 40.2311 178.525 39.944 178.831 39.5995L179.252 39.9248C178.946 40.499 178.506 40.9967 177.95 41.3603C177.319 41.724 176.63 41.8962 175.921 41.8962ZM181.013 45.6859V45.1117L182.391 44.882C182.41 44.4227 182.41 43.9633 182.41 43.504C182.41 43.0446 182.429 42.6236 182.429 42.1642V37.341C182.429 36.8816 182.429 36.4988 182.41 36.1926C182.391 35.8864 182.41 35.5801 182.372 35.2356L181.013 35.0825V34.4891L183.406 33.4556L183.655 33.6279L183.75 34.7188C184.554 33.8767 185.415 33.4556 186.334 33.4556C186.928 33.4556 187.502 33.6279 188 33.9532C188.516 34.3169 188.918 34.8145 189.167 35.3887C189.761 36.8242 189.761 38.4511 189.148 39.8866C188.861 40.4799 188.44 40.9775 187.885 41.3412C187.349 41.6857 186.717 41.8771 186.085 41.858C185.683 41.858 185.301 41.7814 184.918 41.6283C184.478 41.4369 184.114 41.1307 183.808 40.767V43.4466C183.808 43.9059 183.827 44.3653 183.846 44.8246L185.396 45.0734V45.6668L181.013 45.6859ZM185.932 34.4126C185.626 34.4317 185.32 34.4891 185.033 34.6231C184.612 34.7954 184.21 35.0442 183.865 35.3504V40.078C184.133 40.3459 184.458 40.5756 184.803 40.7287C185.09 40.8627 185.415 40.9393 185.741 40.9393C186.373 40.9393 186.966 40.6522 187.387 40.1737C187.846 39.676 188.076 38.8722 188.076 37.7812C188.076 36.6902 187.866 35.8672 187.464 35.293C187.138 34.7571 186.564 34.4126 185.932 34.4126ZM195.445 41.8771C194.278 41.8771 193.34 41.4943 192.632 40.7479C191.943 40.0014 191.579 38.9679 191.598 37.6855C191.579 36.9008 191.77 36.116 192.153 35.4079C192.842 34.1829 194.144 33.4365 195.56 33.4365C196.039 33.4365 196.536 33.5322 196.977 33.7236C197.398 33.8958 197.762 34.1638 198.049 34.5083C198.336 34.8145 198.508 35.2165 198.585 35.6184C198.546 36.0012 198.202 36.2883 197.8 36.25C197.57 36.2691 197.321 36.1926 197.149 36.0203C196.996 35.8481 196.9 35.6567 196.862 35.427L196.556 34.3169C196.403 34.2595 196.249 34.2212 196.077 34.2212C195.924 34.2021 195.771 34.1829 195.637 34.1829C194.929 34.1638 194.278 34.47 193.818 35.0251C193.359 35.5801 193.11 36.4031 193.11 37.475C193.11 38.5468 193.359 39.3507 193.876 39.8866C194.374 40.4416 195.101 40.7479 195.847 40.7287C196.307 40.7287 196.766 40.6139 197.187 40.4033C197.608 40.1737 197.953 39.8483 198.202 39.4463L198.623 39.676C198.412 40.3268 198.01 40.8818 197.455 41.2838C196.862 41.7048 196.173 41.8962 195.445 41.8771ZM206.279 40.7861L205.686 39.0444C205.609 38.719 205.418 38.4319 205.131 38.2405C204.825 38.0683 204.48 37.9917 204.116 38.0109H203.178V39.4655C203.178 39.9631 203.198 40.4225 203.217 40.8436L204.404 41.0732V41.6857H200.518V41.0732L201.705 40.8436C201.724 40.4225 201.724 39.9631 201.724 39.4655C201.724 38.9679 201.743 38.5276 201.743 38.1257V37.207C201.743 36.8242 201.743 36.384 201.724 35.8672C201.724 35.3696 201.724 34.9102 201.705 34.4891L200.518 34.2595V33.647H204.423V34.2595L203.236 34.4891C203.217 34.9102 203.217 35.3696 203.198 35.8864V37.2644H204.078C204.442 37.2644 204.825 37.1687 205.112 36.939C205.418 36.7094 205.667 36.2883 205.877 35.6375C206.069 35.0442 206.356 34.4891 206.758 34.0107C207.102 33.647 207.581 33.4365 208.079 33.4173C208.576 33.5322 208.806 33.8193 208.806 34.2786C208.806 34.5083 208.71 34.738 208.538 34.8911C208.308 35.0633 208.021 35.1399 207.734 35.1208C207.6 35.1208 207.447 35.1208 207.313 35.1016L206.93 35.0633C206.873 35.1782 206.815 35.3122 206.739 35.4461C206.681 35.5993 206.624 35.7524 206.566 35.9246C206.452 36.3074 206.26 36.6902 206.011 36.9965C205.801 37.2644 205.514 37.475 205.188 37.6089C205.667 37.6855 206.107 37.896 206.471 38.2214C206.815 38.5468 207.083 38.9679 207.217 39.4272L207.715 40.8244L208.978 41.035V41.6474C208.806 41.6857 208.634 41.724 208.423 41.7623C208.251 41.8005 208.079 41.8197 207.887 41.8388C207.524 41.858 207.179 41.7814 206.854 41.6474C206.547 41.4177 206.356 41.1115 206.279 40.7861ZM216.654 41.8388C216.271 41.858 215.907 41.724 215.62 41.4752C215.333 41.2263 215.161 40.901 215.103 40.5373C214.721 40.9201 214.319 41.2455 213.878 41.5517C213.496 41.7814 213.055 41.8962 212.596 41.8962C212.003 41.9154 211.447 41.724 210.969 41.3795C210.529 41.0158 210.299 40.499 210.299 39.81C210.299 39.5038 210.376 39.1784 210.51 38.9104C210.72 38.5659 211.026 38.298 211.371 38.0874C211.926 37.7429 212.519 37.475 213.132 37.2836C213.381 37.1879 213.687 37.0922 214.031 36.9965C214.376 36.9008 214.721 36.8051 215.065 36.7285V36.3074C215.065 35.4844 214.931 34.9485 214.682 34.6805C214.433 34.4126 214.012 34.2786 213.457 34.2786C213.323 34.2786 213.17 34.2786 213.036 34.2978C212.864 34.3169 212.711 34.336 212.538 34.3743L212.213 35.4653C212.06 36.0012 211.754 36.2691 211.313 36.2691C210.911 36.3074 210.567 36.0395 210.51 35.6375C210.51 35.6184 210.51 35.5993 210.51 35.5801C210.663 34.9485 211.084 34.3935 211.639 34.0681C212.309 33.6661 213.074 33.4747 213.84 33.4939C214.74 33.4939 215.41 33.7236 215.85 34.1638C216.29 34.604 216.501 35.3696 216.501 36.4223V40.0014C216.482 40.2694 216.539 40.5373 216.673 40.767C216.769 40.901 216.941 40.9967 217.113 40.9967C217.247 40.9967 217.381 40.9584 217.496 40.901C217.611 40.8244 217.707 40.7287 217.783 40.633L218.128 40.9967C217.955 41.2838 217.726 41.5134 217.439 41.6857C217.209 41.7623 216.941 41.8388 216.654 41.8388ZM211.83 39.542C211.83 39.9823 211.964 40.3076 212.232 40.499C212.519 40.6904 212.864 40.8053 213.208 40.7861C213.362 40.7861 213.534 40.767 213.687 40.7096C213.878 40.6522 214.089 40.5565 214.261 40.4608C214.472 40.3268 214.759 40.1354 215.103 39.8866V37.3027C214.816 37.3793 214.51 37.475 214.223 37.5707C213.936 37.6663 213.706 37.7429 213.515 37.8003C213.113 37.9343 212.749 38.1257 212.424 38.3937C212.213 38.5468 212.06 38.7573 211.945 38.987C211.888 39.1593 211.849 39.3507 211.83 39.542ZM223.277 37.6089H224.425V37.2261C224.425 36.8433 224.425 36.384 224.406 35.8481C224.387 35.3122 224.387 34.8528 224.387 34.4126H223.104C221.937 34.4126 221.363 34.9102 221.363 35.9246C221.363 36.5371 221.516 36.9773 221.841 37.2453C222.166 37.5132 222.664 37.6089 223.277 37.6089ZM218.932 41.6666V41.0541L220.195 40.8244L220.769 39.542C220.922 39.1784 221.152 38.853 221.439 38.5851C221.688 38.3362 221.994 38.1448 222.32 38.0109C221.458 37.9534 220.846 37.7046 220.463 37.3027C219.678 36.4414 219.755 35.1016 220.616 34.336L220.654 34.2978C221.152 33.8767 221.937 33.6661 222.99 33.6661H227.105V34.2786L225.899 34.5083C225.899 34.9294 225.88 35.3887 225.861 35.8864V39.4463C225.88 39.944 225.88 40.4033 225.899 40.8244L227.105 41.0541V41.6666H223.2V41.0541L224.387 40.8244C224.387 40.4416 224.406 40.0014 224.406 39.542C224.406 39.0827 224.425 38.6616 224.425 38.2597H223.64C223.411 38.2405 223.2 38.2788 222.99 38.3745C222.836 38.4702 222.722 38.5851 222.626 38.7382C222.53 38.9104 222.396 39.121 222.262 39.4081L221.363 41.1689C221.267 41.3795 221.114 41.5517 220.922 41.6474C220.654 41.7623 220.367 41.8197 220.061 41.8005C219.831 41.8005 219.602 41.7814 219.372 41.724C219.18 41.7431 219.027 41.7048 218.932 41.6666Z" fill="#19304B"/>
<path d="M1.89019 31.3315C4.09142 34.681 8.24505 37.2266 10.0635 38.0687C9.35524 36.9586 7.99621 34.4322 7.63253 32.8818C7.28799 31.3698 7.3837 28.6137 7.51769 27.4653C7.65167 26.3169 8.01536 25.0537 9.16382 22.9483C10.006 21.398 10.9631 19.9242 12.035 18.527C10.1592 15.9814 9.22125 13.9526 8.72358 12.3449C8.28333 10.9094 8.05364 8.0767 8.05364 6.71777C7.72824 7.19627 6.46492 9.07197 4.07228 12.7851C1.67964 16.4982 0.512033 20.2113 0.205775 21.6085C-0.138765 23.4459 -0.311038 27.9629 1.89019 31.3315Z" fill="#C43434"/>
<path d="M25.8361 31.217C23.8071 34.5664 19.175 37.3226 17.1077 38.2795C18.2562 36.7866 19.1367 34.3368 19.4238 33.3223C19.8449 31.6572 20.0363 29.9537 19.9789 28.2503C19.8832 26.0492 18.5433 23.5036 17.8734 22.5084C17.28 21.6662 15.6913 19.3503 14.0068 16.8813C12.3224 14.4122 11.2314 12.0198 10.9251 10.6991C10.4849 8.82344 10.37 6.12473 11.2505 4.19161C11.9396 2.69871 12.7818 1.3015 13.7963 0C16.1507 3.11978 20.7445 8.72774 23.0606 12.1346C24.6685 14.5271 26.9271 18.6039 27.2525 21.5131C27.5013 23.4845 27.865 27.8675 25.8361 31.217Z" fill="#C43434"/>
<path d="M13.9104 40.2315H13.719C13.6233 37.7051 13.585 34.6236 13.6999 30.853C13.7382 30.1066 13.6042 29.341 13.3362 28.652L12.7811 27.3122C12.3026 26.1638 12.092 29.5707 12.2834 32.212C12.3791 33.5326 12.4748 36.6333 12.6854 40.2507C5.69888 40.3081 0.243652 40.7866 0.243652 41.3799C0.243652 42.0115 6.36882 42.5283 13.9104 42.5283C21.452 42.5283 27.5772 42.0115 27.5772 41.3799C27.5772 40.7483 21.452 40.2315 13.9104 40.2315Z" fill="#C43434"/>
<path d="M47.5029 18.9287C47.101 17.4167 46.0865 16.8234 44.4021 16.8234H43.2536C43.2536 19.4072 43.2536 21.6849 43.311 23.9816L45.6079 24.2304V25.5702H37.1284V24.2304L39.5211 23.9816C39.5785 21.6083 39.5785 19.1967 39.5785 16.7468V15.5218C39.5785 13.1294 39.5785 10.7178 39.5211 8.28702L37.1284 8.0382V6.69841H45.6079V8.0382L43.311 8.28702C43.2536 10.6603 43.2536 13.1294 43.2536 15.407H44.0766C45.9525 15.407 46.8138 14.9477 47.9814 11.6748C49.4553 7.6554 50.6612 6.43046 52.3073 6.18164C53.6089 6.21992 54.298 6.98551 54.298 8.0382C54.298 8.97605 53.5324 9.9139 51.8671 9.9139C51.4077 9.9139 50.9483 9.87562 50.4889 9.77992C50.0295 10.6221 49.6276 11.4834 49.3022 12.3638C48.4791 14.45 47.7135 15.5027 46.5459 16.0386C49.3022 16.4597 50.7569 17.6846 51.4269 20.1154L52.5945 24.0199L55.1594 24.2496V25.5894C54.2597 25.8382 53.3218 25.953 52.403 25.9339C50.3549 25.9339 49.2065 25.5128 48.7662 23.6563L47.5029 18.9287Z" fill="#19304B"/>
<path d="M56.748 24.2305L59.0833 23.8859L65.0362 6.56445H67.3714L73.3243 24.0199L75.2575 24.2496V25.5702H67.0268V24.2496L69.5343 23.9434L68.1753 19.7326H61.9736L60.6146 23.8668L63.0838 24.2305V25.5702H56.7672L56.748 24.2305ZM62.4713 18.2397H67.6776L65.0936 10.3541L62.4713 18.2397Z" fill="#19304B"/>
<path d="M77.1533 24.2303L79.7948 23.8666V8.34426L77.2682 8.03803V6.69824H83.623L89.174 20.8617L94.4186 6.69824H100.773V8.03803L98.4383 8.28684C98.3808 10.6602 98.3808 13.0718 98.3808 15.5217V16.7466C98.3808 19.1582 98.3808 21.589 98.4383 23.9815L100.831 24.2303V25.5701H92.428V24.2303L94.6866 23.9432C94.744 21.5698 94.744 19.2157 94.744 17.0529L94.7823 10.2774L89.1357 25.5701H87.3173L81.3452 10.2774L81.4984 15.8662V23.8666L83.8527 24.2303V25.5701H77.1725L77.1533 24.2303Z" fill="#19304B"/>
<path d="M106.535 15.5217C106.535 13.1292 106.535 10.7176 106.477 8.28684L104.085 8.03803V6.69824H118.441L118.632 11.6746H116.641L116.048 8.19115H110.248C110.191 10.5836 110.191 13.0335 110.191 15.1197H113.866L114.229 12.6316H115.703V19.0625H114.229L113.885 16.6126H110.172C110.172 19.3496 110.172 21.7038 110.229 24.0389H116.584L117.177 20.5746H119.168L118.976 25.5509H104.046V24.2111L106.439 23.9623C106.496 21.589 106.496 19.1774 106.496 16.7275L106.535 15.5217Z" fill="#19304B"/>
<path d="M124.585 15.5217C124.585 13.1292 124.585 10.7176 124.527 8.28684L122.173 8.03803V6.69824H130.652V8.03803L128.317 8.28684C128.26 10.6602 128.26 13.0718 128.26 15.158H135.974C135.974 12.823 135.974 10.5453 135.916 8.28684L133.619 8.03803V6.69824H142.099V8.03803L139.745 8.28684C139.687 10.6602 139.687 13.0718 139.687 15.5217V16.7466C139.687 19.1391 139.687 21.5507 139.745 23.9815L142.099 24.2303V25.5701H133.6V24.2303L135.897 23.9815C135.955 21.589 135.955 19.12 135.955 16.6318H128.241C128.241 19.3688 128.241 21.7038 128.298 23.9815L130.633 24.2303V25.5701H122.154V24.2303L124.508 23.9815C124.566 21.6081 124.566 19.1965 124.566 16.7466L124.585 15.5217Z" fill="#19304B"/>
<path d="M145.353 6.67969H154.12V8.01947L151.497 8.30657C151.44 10.3545 151.44 12.4408 151.44 14.3547C152.359 14.2782 153.239 14.2399 154.12 14.2399C159.096 14.2399 161.298 16.7089 161.298 19.8287C161.298 22.5274 159.537 25.5898 153.182 25.5898H145.353V24.25L147.727 24.0012C147.784 21.6278 147.784 19.2162 147.784 16.7663V15.5414C147.784 13.1489 147.784 10.7373 147.727 8.30657L145.372 8.05775L145.353 6.67969ZM151.497 24.0969H152.914C156.072 24.0969 157.565 22.5848 157.565 19.9053C157.565 17.2257 156.397 15.7711 153.124 15.7711C152.531 15.7711 151.957 15.7902 151.44 15.8285V16.7472C151.44 19.1971 151.44 21.647 151.497 24.0969Z" fill="#19304B"/>
<path d="M163.882 6.67969H177.951L178.142 12.3259H176.171L175.462 8.19173H170.045C169.988 10.5842 169.988 13.0341 169.988 15.5031V16.9577C169.988 19.1588 169.988 21.5513 170.045 23.9246L172.629 24.2117V25.5515H163.863V24.2117L166.255 23.9629C166.313 21.5896 166.313 19.1971 166.313 16.9577V15.5223C166.313 13.1298 166.313 10.7182 166.255 8.28743L163.863 8.03861L163.882 6.67969Z" fill="#C43434"/>
<path d="M177.74 24.2305L180.075 23.8859L186.028 6.56445H188.363L194.316 24.0199L196.249 24.2496V25.5702H188.019V24.2496L190.526 23.9434L189.148 19.7326H182.946L181.587 23.8668L184.075 24.2305V25.5702H177.759L177.74 24.2305ZM183.463 18.2397H188.669L186.085 10.3541L183.463 18.2397Z" fill="#C43434"/>
<path d="M200.882 15.5217C200.882 13.1292 200.882 10.7176 200.824 8.28684L198.432 8.03803V6.69824H206.126C211.486 6.69824 213.879 8.97588 213.879 12.3445C213.879 15.56 211.735 18.2395 205.724 18.2395H204.557C204.557 20.0578 204.557 21.9718 204.614 23.9623L207.198 24.2494V25.5892H198.432V24.2494L200.824 24.0006C200.882 21.6273 200.882 19.2157 200.882 16.7658V15.5217ZM204.614 8.15286C204.557 10.5836 204.557 13.0526 204.557 15.5217V16.7849H205.954C208.94 16.7849 210.261 14.9858 210.261 12.3445C210.261 9.64577 208.806 8.15286 205.839 8.15286H204.614Z" fill="#C43434"/>
<path d="M213.495 24.2305L215.83 23.8859L221.783 6.56445H224.118L230.071 24.0199L232.005 24.2496V25.5702H223.774V24.2496L226.281 23.9434L224.903 19.7326H218.701L217.342 23.8668L219.812 24.2305V25.5702H213.495V24.2305ZM219.237 18.2397H224.444L221.841 10.3541L219.237 18.2397Z" fill="#C43434"/>
<path d="M236.637 15.5217C236.637 13.1292 236.637 10.7176 236.58 8.28684L234.226 8.03803V6.69824H242.705V8.03803L240.37 8.28684C240.312 10.6602 240.312 13.0718 240.312 15.158H248.026C248.026 12.823 248.026 10.5453 247.969 8.28684L245.672 8.03803V6.69824H254.152V8.03803L251.797 8.28684C251.74 10.6602 251.74 13.0718 251.74 15.5217V16.7466C251.74 19.1391 251.74 21.5507 251.797 23.9815L254.152 24.2303V25.5701H245.672V24.2303L247.969 23.9815C248.026 21.589 248.026 19.12 248.026 16.6318H240.312C240.312 19.3688 240.312 21.7038 240.37 23.9815L242.705 24.2303V25.5701H234.226V24.2303L236.58 23.9815C236.637 21.6081 236.637 19.1965 236.637 16.7466V15.5217Z" fill="#C43434"/>
<path d="M263.263 15.5598C263.263 13.1482 263.263 10.6983 263.205 8.24837H259.301L258.669 11.9232H256.583L256.755 6.73633H273.637L273.79 11.9232H271.742L271.111 8.24837H267.206C267.148 10.6408 267.148 13.0907 267.148 15.5598V16.7847C267.148 19.1772 267.148 21.5888 267.206 23.9813L270 24.2684V25.6081H260.411V24.2684L263.205 23.9813C263.263 21.6271 263.263 19.1963 263.263 16.7847V15.5598Z" fill="#C43434"/>
</svg>
