<svg width="71" height="70" viewBox="0 0 71 70" fill="none" xmlns="http://www.w3.org/2000/svg">
<path fill-rule="evenodd" clip-rule="evenodd" d="M34.41 51.33H28.21C27.6938 51.3287 27.1917 51.4988 26.7826 51.8138C26.3736 52.1287 26.0807 52.5706 25.95 53.07L22.28 67.07C22.2017 67.3668 22.1829 67.6761 22.2245 67.9802C22.2662 68.2844 22.3675 68.5772 22.5227 68.8421C22.6779 69.1069 22.8838 69.3385 23.1288 69.5234C23.3737 69.7084 23.6528 69.8432 23.95 69.92C24.1426 69.9711 24.3408 69.998 24.54 70H45.54C45.7353 69.997 45.9297 69.9736 46.12 69.93C46.3129 69.9785 46.5111 70.002 46.71 70H67.71C68.0173 69.9987 68.3213 69.9369 68.6047 69.818C68.8881 69.6992 69.1453 69.5258 69.3617 69.3076C69.5781 69.0893 69.7493 68.8306 69.8657 68.5462C69.9821 68.2618 70.0413 67.9573 70.04 67.65C70.0398 67.4749 70.0196 67.3005 69.98 67.13L66.65 53.13C66.5287 52.6186 66.2388 52.163 65.827 51.8365C65.4153 51.5099 64.9055 51.3315 64.38 51.33H59.04L56.14 39.13C56.0187 38.6186 55.7288 38.163 55.3171 37.8365C54.9053 37.5099 54.3955 37.3315 53.87 37.33H39.87C39.3538 37.3287 38.8517 37.4988 38.4426 37.8138C38.0336 38.1287 37.7407 38.5706 37.61 39.07L34.41 51.33ZM45.16 56L46.21 60.38L47.36 56H45.16ZM20.16 14.48L0.44 43.63C0.258121 43.8809 0.129065 44.1661 0.060649 44.4684C-0.00776676 44.7707 -0.014119 45.0837 0.0419771 45.3885C0.0980732 45.6933 0.21545 45.9835 0.387 46.2416C0.558549 46.4997 0.7807 46.7203 1.04 46.89L8.4 51.72C8.65399 51.8891 8.93885 52.0065 9.23825 52.0653C9.53766 52.1242 9.84574 52.1234 10.1449 52.063C10.444 52.0026 10.7282 51.8839 10.9813 51.7135C11.2345 51.5431 11.4515 51.3244 11.62 51.07L30.62 21.28C27.4259 18.5913 23.9005 16.3229 20.13 14.53L20.16 14.48ZM14.53 8.16999C14.3616 8.42596 14.2453 8.71264 14.1878 9.01362C14.1303 9.31459 14.1328 9.62395 14.195 9.92397C14.2572 10.224 14.378 10.5088 14.5505 10.7621C14.7229 11.0154 14.9437 11.2321 15.2 11.4C15.3962 11.5306 15.6124 11.6286 15.84 11.69C22.94 13.69 28.06 16.69 43.91 31.14C44.2958 31.4971 44.7909 31.7133 45.3151 31.7535C45.8393 31.7936 46.3616 31.6553 46.7972 31.361C47.2328 31.0667 47.5561 30.6338 47.7146 30.1325C47.873 29.6313 47.8573 29.0912 47.67 28.6C45.4222 22.437 41.9438 16.796 37.4464 12.0201C32.9491 7.24428 27.527 3.43359 21.51 0.819993C21.016 0.640888 20.4761 0.633258 19.9773 0.798333C19.4784 0.963407 19.0496 1.29158 18.76 1.72999L14.53 8.16999ZM28.2 2.99999C31.5643 5.1011 34.6691 7.59163 37.45 10.42L39.25 7.11999C39.5477 6.60171 39.6348 5.98886 39.4933 5.40816C39.3519 4.82746 38.9927 4.32333 38.49 3.99999L32.97 0.379993C32.4839 0.0619101 31.8966 -0.0631424 31.3231 0.0293536C30.7496 0.12185 30.2314 0.425223 29.87 0.879993L28.2 2.99999Z" fill="url(#paint0_linear_1_3)"/>
<defs>
<linearGradient id="paint0_linear_1_3" x1="9.07865e-09" y1="35" x2="70.04" y2="35" gradientUnits="userSpaceOnUse">
<stop offset="1" stop-color="#4B4B4B"/>
</linearGradient>
</defs>
</svg>
