<svg width="94" height="70" viewBox="0 0 94 70" fill="none" xmlns="http://www.w3.org/2000/svg">
<path fill-rule="evenodd" clip-rule="evenodd" d="M37.27 0.35C38.7074 1.02057 39.8745 2.15942 40.58 3.58L41.07 4.64V18.64C41.13 34.07 41.15 33.77 39.98 35.38C39.3516 36.3181 38.4712 37.0599 37.44 37.52L36.44 38.03L21.22 38.08C10.01 38.08 5.73 38.08 4.99 37.93C4.00189 37.6935 3.08605 37.2205 2.32132 36.5515C1.55658 35.8826 0.965861 35.0379 0.6 34.09L0.18 33.09V4.82L0.76 3.61C1.37119 2.27154 2.41336 1.17655 3.72 0.5L4.58 0.05L20.44 0C36 0 36.32 0 37.27 0.35ZM29.61 6.43C29.61 6.43 30.77 7.63 32.18 9L34.74 11.56V6.38H32.18C30.77 6.38 29.61 6.4 29.61 6.43ZM26.13 14.9L34.65 23.43L34.7 20.82V18.22L28.84 12.3L22.92 6.38H17.6L26.13 14.9ZM6.69 7C6.69 7.55 7.75 8.65 18.75 19.65L30.8 31.68H34.74V31C34.74 30.34 34.35 29.92 22.74 18.35L10.74 6.35H6.69V7ZM62.69 10.63C64.2613 10.9463 65.7047 11.7185 66.84 12.85C67.37 13.39 69.84 16.97 72.41 20.85L77.03 27.85L77.85 27.98C78.31 28.05 80.02 28.32 81.67 28.56C85.09 29.07 86.14 29.48 87.53 30.84C89.71 32.98 89.95 34.03 89.95 41.72V47.52L90.57 47.63C91.6774 47.9617 92.6174 48.7016 93.2 49.7L93.71 50.58V58.68L93.16 59.58C92.7873 60.1625 92.2925 60.6573 91.71 61.03C90.81 61.58 90.8 61.59 87.41 61.68L84 61.66L83.6 62.66C82.9632 64.2188 82.0029 65.6248 80.7824 66.7849C79.5619 67.9451 78.1091 68.833 76.52 69.39C75.329 69.8302 74.0543 69.9977 72.79 69.88C71.5332 69.9759 70.2697 69.8265 69.07 69.44C67.4383 68.9055 65.945 68.017 64.6968 66.8379C63.4487 65.6589 62.4765 64.2186 61.85 62.62L61.42 61.53H47.25H33.07L32.53 62.81C31.8357 64.43 30.7843 65.8722 29.4545 67.0289C28.1246 68.1856 26.5506 69.0269 24.85 69.49C22.9017 69.964 20.8718 69.9948 18.91 69.58C17.1177 69.1036 15.4612 68.2155 14.0724 66.9864C12.6836 65.7573 11.6008 64.2211 10.91 62.5L10.53 61.5L6.73 61.44L2.93 61.39L2 60.92C1.41806 60.5465 0.923489 60.0519 0.55 59.47L0 58.57V53.15C0 47.21 0 47.15 1.17 45.92C2.34 44.69 0.929998 44.8 20.72 44.69L38.72 44.6L40 44.17C41.3531 43.7759 42.6143 43.1164 43.71 42.23C45.0934 41.1205 46.2165 39.7209 47 38.13C48 35.88 48 36.13 48.13 23.58L48.23 11.91L48.69 11.41C49.58 10.41 49.85 10.41 56.06 10.41C59.21 10.44 62.18 10.52 62.67 10.6L62.69 10.63ZM6.57 17L6.7 19.7L12.7 25.7L18.7 31.7H24L15.31 23C10.52 18.21 6.57 14.29 6.53 14.29C6.49634 15.1934 6.50969 16.098 6.57 17ZM6.69 29V31.66H12.1L9.44 29C8 27.56 6.77 26.36 6.74 26.36C6.71 26.36 6.69 27.56 6.69 29ZM70.51 53C69.1903 53.5489 68.1213 54.568 67.51 55.86C67.0648 56.6181 66.8591 57.493 66.92 58.37C66.9177 59.5015 67.248 60.6087 67.8701 61.5539C68.4921 62.4991 69.3783 63.2405 70.4184 63.686C71.4585 64.1314 72.6066 64.2612 73.72 64.0593C74.8333 63.8573 75.8626 63.3324 76.68 62.55C77.2439 62.0375 77.6986 61.4165 78.0172 60.7243C78.3357 60.032 78.5114 59.2827 78.5338 58.521C78.5562 57.7593 78.4248 57.0009 78.1475 56.2912C77.8703 55.5814 77.4528 54.9348 76.92 54.39C76.1643 53.4705 75.0962 52.8617 73.92 52.68C72.7782 52.4217 71.5838 52.5338 70.51 53ZM19.41 53C18.5518 53.3875 17.8004 53.9775 17.2203 54.7193C16.6403 55.4611 16.2489 56.3326 16.0797 57.259C15.9106 58.1853 15.9687 59.1389 16.2492 60.0378C16.5297 60.9367 17.0241 61.7542 17.69 62.42C18.2112 62.9824 18.8547 63.4174 19.5708 63.6914C20.287 63.9653 21.0565 64.0709 21.82 64C22.6675 64.0958 23.5247 63.9466 24.29 63.57C25.4306 62.9719 26.3723 62.0545 27 60.93C27.4263 60.145 27.5976 59.2468 27.49 58.36C27.5899 57.4876 27.4335 56.605 27.04 55.82C26.3984 54.4376 25.236 53.3651 23.8065 52.8368C22.3769 52.3084 20.7964 52.3671 19.41 53Z" fill="#4B4B4B"/>
</svg>
