<svg width="70" height="70" viewBox="0 0 70 70" fill="none" xmlns="http://www.w3.org/2000/svg">
<path d="M64.17 64.17V14.58C64.17 13.8135 64.0189 13.0546 63.7253 12.3466C63.4317 11.6386 63.0013 10.9955 62.4589 10.454C61.9165 9.91252 61.2726 9.48329 60.5641 9.1909C59.8556 8.8985 59.0964 8.74867 58.33 8.74999H56.13C54.8201 8.75442 53.5223 8.49857 52.312 7.99731C51.1018 7.49604 50.0032 6.75934 49.08 5.82999C47.2311 3.98072 45.0361 2.51378 42.6202 1.51294C40.2043 0.512107 37.615 -0.00302124 35 -0.00302124C32.385 -0.00302124 29.7957 0.512107 27.3798 1.51294C24.9639 2.51378 22.7689 3.98072 20.92 5.82999C19.9972 6.75979 18.8986 7.49678 17.6883 7.99808C16.478 8.49938 15.18 8.75497 13.87 8.74999H11.67C10.1229 8.74998 8.63895 9.3639 7.54403 10.4569C6.4491 11.55 5.83265 13.0329 5.83 14.58V64.17H0V70H70V64.17H64.17ZM26.25 14.58L32.81 15.31L32.08 8.74999H37.92L37.19 15.31L43.75 14.58V20.42L37.19 19.69L37.92 32.08H32.08L32.81 19.69L26.25 20.42V14.58ZM40.83 40.83V46.67H29.17V40.83H40.83ZM13.12 40.83H24.79V46.67H13.13V40.83H13.12ZM49.58 58.33H20.42V52.5H49.58V58.33ZM56.87 46.67H45.21V40.83H56.88V46.67H56.87Z" fill="#4B4B4B"/>
</svg>
