<svg width="56" height="70" viewBox="0 0 56 70" fill="none" xmlns="http://www.w3.org/2000/svg">
<g clip-path="url(#clip0_1_8)">
<path fill-rule="evenodd" clip-rule="evenodd" d="M3.39 0.16C2.67794 0.210216 1.99622 0.468126 1.42924 0.901809C0.862248 1.33549 0.434872 1.92591 0.2 2.6L0 3.6V56.6L0.2 57.53C0.353675 58.047 0.626416 58.5207 0.996329 58.9132C1.36624 59.3057 1.82302 59.606 2.33 59.79L3.55 60.16H16.55H29.55V50.89L29 50C27.4612 46.9283 26.9362 43.4478 27.5004 40.0589C28.0646 36.67 29.689 33.5474 32.14 31.14C34.506 28.6583 37.6164 27.0153 41 26.46C43.2821 26.1321 45.6053 26.2338 47.85 26.76L48.16 26.83V15.21V3.59C48.1165 3.19894 48.0012 2.81925 47.82 2.47C47.2477 1.49263 46.3424 0.75419 45.27 0.39C44.8112 0.171954 44.3164 0.0397734 43.81 0L24.23 0C7.75 0 3.86 0 3.39 0.16ZM32.88 11.27C33.1893 11.4621 33.4404 11.735 33.606 12.0592C33.7717 12.3835 33.8457 12.7468 33.82 13.11C33.8552 13.4813 33.7858 13.8551 33.6196 14.1891C33.4535 14.5231 33.1973 14.804 32.88 15C32.51 15.28 32.35 15.28 22.69 15.32C16.04 15.32 12.69 15.32 12.37 15.22C12.0377 15.1061 11.7377 14.914 11.4952 14.6598C11.2528 14.4057 11.0751 14.0969 10.977 13.7596C10.879 13.4223 10.8635 13.0664 10.9319 12.7218C11.0003 12.3773 11.1505 12.0543 11.37 11.78C12.07 10.95 11.65 10.97 22.52 11.01C32.36 11 32.5 11 32.88 11.27ZM32.88 20.03C33.1893 20.2221 33.4404 20.495 33.606 20.8192C33.7717 21.1435 33.8457 21.5068 33.82 21.87C33.8526 22.2341 33.7816 22.6 33.6153 22.9256C33.449 23.2511 33.1941 23.523 32.88 23.71C32.51 23.99 32.35 24 22.75 24.04C17.39 24.04 12.81 24.04 12.56 24.04C12.1894 23.9055 11.8553 23.6863 11.5845 23.3998C11.3136 23.1134 11.1135 22.7676 11 22.39C10.926 22.0599 10.928 21.7173 11.006 21.3881C11.084 21.059 11.2358 20.7518 11.45 20.49C12.15 19.66 11.73 19.69 22.6 19.72C32.36 19.75 32.5 19.75 32.88 20V20.03ZM25.21 28.8C25.5241 28.987 25.779 29.2589 25.9453 29.5844C26.1116 29.91 26.1826 30.2759 26.15 30.64C26.1757 31.0032 26.1017 31.3665 25.936 31.6908C25.7704 32.015 25.5193 32.2879 25.21 32.48C24.84 32.75 24.64 32.76 18.92 32.8C15.67 32.8 12.81 32.8 12.56 32.8C12.1886 32.6669 11.8538 32.4482 11.5827 32.1615C11.3117 31.8748 11.1121 31.5283 11 31.15C10.9275 30.8198 10.9303 30.4776 11.0082 30.1486C11.0861 29.8197 11.2371 29.5126 11.45 29.25C12.13 28.44 12.07 28.45 18.76 28.48C24.65 28.51 24.84 28.52 25.21 28.8ZM41.52 30.85C39.4121 31.2581 37.4523 32.2242 35.8449 33.6477C34.2376 35.0711 33.0416 36.8998 32.3816 38.9429C31.7217 40.986 31.622 43.1687 32.093 45.2635C32.5639 47.3583 33.5883 49.2883 35.0592 50.8523C36.5301 52.4164 38.3937 53.5571 40.4557 54.1556C42.5176 54.7541 44.7024 54.7884 46.7821 54.255C48.8618 53.7216 50.7603 52.6399 52.2797 51.1229C53.799 49.6058 54.8835 47.7089 55.42 45.63C55.8499 43.6902 55.8499 41.6798 55.42 39.74C54.6578 36.7744 52.7997 34.2081 50.2203 32.5584C47.6408 30.9086 44.5318 30.2981 41.52 30.85ZM48.31 37.8C48.6205 38.0257 48.8655 38.3298 49.0201 38.6812C49.1747 39.0325 49.2333 39.4186 49.19 39.8C49.13 40.31 48.71 41.02 46.67 44.06C45.8042 45.4274 44.8593 46.7429 43.84 48C43.4909 48.227 43.0739 48.326 42.66 48.28C41.88 48.28 41.82 48.28 39.83 46.91C39.0142 46.3897 38.2417 45.8045 37.52 45.16C37.3257 44.7952 37.224 44.3883 37.224 43.975C37.224 43.5617 37.3257 43.1548 37.52 42.79C37.7053 42.4767 37.9755 42.2222 38.2993 42.0558C38.6231 41.8895 38.9874 41.8181 39.35 41.85C39.6658 41.8343 39.9816 41.8819 40.2787 41.9901C40.5758 42.0983 40.8482 42.2649 41.08 42.48L42.03 43.11L43.54 40.84C45.31 38.16 45.54 37.84 46.13 37.58C46.4843 37.4385 46.8674 37.3846 47.2469 37.423C47.6265 37.4613 47.9912 37.5906 48.31 37.8ZM33.89 62.06C33.89 68.99 33.89 68.92 34.79 69.61C34.9646 69.7603 35.1686 69.8725 35.389 69.9397C35.6093 70.0068 35.8413 70.0274 36.07 70C36.8 70 36.97 69.92 40.22 68C42.08 66.93 43.67 66 43.75 66C43.83 66 45.42 66.88 47.28 68C50.52 69.87 50.69 70 51.43 70C51.6586 70.025 51.89 70.0033 52.11 69.9362C52.33 69.8692 52.5341 69.7582 52.71 69.61C53.62 68.92 53.61 68.99 53.61 62.06V55.82L52.82 56.35C50.9562 57.5715 48.8752 58.4236 46.69 58.86C45.7163 58.9987 44.7334 59.0622 43.75 59.05C42.7466 59.0643 41.7436 59.0007 40.75 58.86C38.5684 58.4219 36.491 57.5699 34.63 56.35L33.84 55.82V62.06H33.89Z" fill="#4B4B4B"/>
</g>
<defs>
<clipPath id="clip0_1_8">
<rect width="55.74" height="70" fill="white"/>
</clipPath>
</defs>
</svg>
