<svg width="70" height="70" viewBox="0 0 70 70" fill="none" xmlns="http://www.w3.org/2000/svg">
<g clip-path="url(#clip0_1_10)">
<path d="M18.63 33.77L33.63 18.77L30.54 15.67L25.41 20.8C25.1456 21.0697 24.7875 21.2273 24.41 21.24C24.2204 21.251 24.0309 21.2169 23.857 21.1404C23.6832 21.0639 23.53 20.9473 23.41 20.8C23.1555 20.5292 23.0138 20.1716 23.0138 19.8C23.0138 19.4284 23.1555 19.0708 23.41 18.8L28.49 13.71L25.03 10.25L17.66 17.62C17.398 17.8932 17.0384 18.0515 16.66 18.06C16.4704 18.071 16.2809 18.0369 16.107 17.9604C15.9332 17.8839 15.78 17.7673 15.66 17.62C15.4055 17.3492 15.2638 16.9916 15.2638 16.62C15.2638 16.2484 15.4055 15.8908 15.66 15.62L23.02 8.25001L19.73 4.81001L14.65 9.89001C14.5182 10.0178 14.3612 10.1168 14.189 10.1805C14.0168 10.2442 13.8332 10.2713 13.65 10.26C13.2811 10.2723 12.9221 10.1395 12.65 9.89001C12.3998 9.61706 12.2611 9.26026 12.2611 8.89001C12.2611 8.51976 12.3998 8.16296 12.65 7.89001L17.74 2.81001L15.38 0.390007C15.1092 0.135478 14.7516 -0.00622559 14.38 -0.00622559C14.0084 -0.00622559 13.6508 0.135478 13.38 0.390007L0.379998 13.39C0.125469 13.6608 -0.0162354 14.0184 -0.0162354 14.39C-0.0162354 14.7616 0.125469 15.1192 0.379998 15.39L18.58 33.81L18.63 33.77ZM69.39 54.69L67 52.26L61.92 57.35C61.6568 57.6214 61.2979 57.7793 60.92 57.79C60.7304 57.801 60.5409 57.7669 60.367 57.6904C60.1932 57.6139 60.04 57.4973 59.92 57.35C59.674 57.075 59.538 56.719 59.538 56.35C59.538 55.981 59.674 55.625 59.92 55.35L65.01 50.27L61.54 46.81L54.17 54.18C53.908 54.4532 53.5484 54.6115 53.17 54.62C52.9804 54.631 52.7909 54.5969 52.617 54.5204C52.4432 54.4439 52.29 54.3273 52.17 54.18C51.9155 53.9092 51.7738 53.5516 51.7738 53.18C51.7738 52.8084 51.9155 52.4508 52.17 52.18L59.54 44.81L56.2 41.35L51.12 46.44C50.858 46.7132 50.4984 46.8715 50.12 46.88C49.9305 46.8902 49.7412 46.8557 49.5675 46.7793C49.3938 46.7029 49.2405 46.5866 49.12 46.44C48.8698 46.1671 48.7311 45.8103 48.7311 45.44C48.7311 45.0698 48.8698 44.713 49.12 44.44L54.21 39.36L51.11 36.26L36.16 51.26L54.58 69.58C54.7132 69.7059 54.8704 69.8035 55.0422 69.8671C55.2141 69.9307 55.397 69.9589 55.58 69.95C55.9489 69.9623 56.3079 69.8295 56.58 69.58L69.58 56.58C69.7044 56.4506 69.8014 56.2972 69.865 56.1293C69.9286 55.9614 69.9575 55.7823 69.95 55.6029C69.9426 55.4235 69.8988 55.2475 69.8215 55.0854C69.7441 54.9234 69.6348 54.7787 69.5 54.66L69.39 54.69ZM68.14 15.35C68.4986 14.9916 68.7831 14.566 68.9772 14.0975C69.1712 13.6291 69.2711 13.127 69.2711 12.62C69.2711 12.113 69.1712 11.6109 68.9772 11.1425C68.7831 10.6741 68.4986 10.2485 68.14 9.89001L60 1.79001C59.2697 1.07779 58.2901 0.67915 57.27 0.67915C56.2499 0.67915 55.2703 1.07779 54.54 1.79001L51.27 5.10001L64.83 18.66L68.14 15.34V15.35ZM49.35 7.00001L3.59 52.7C3.14736 53.1444 2.84189 53.7068 2.71 54.32L0.0599978 67.37C-0.0108371 67.6467 -0.0216058 67.9353 0.0284162 68.2164C0.0784381 68.4976 0.188091 68.7648 0.349998 69C0.587346 69.3336 0.914243 69.5933 1.29292 69.749C1.6716 69.9047 2.08661 69.9502 2.49 69.88L15.61 67.23C16.2189 67.0811 16.7778 66.7741 17.23 66.34L63 20.58L49.35 7.00001ZM15.09 64.57L6.84 66.26L3.59 63L5.29 54.75L5.36 54.67L8.16 55.19L8.09 57.62C8.08709 57.6694 8.09466 57.7188 8.11223 57.765C8.12979 57.8112 8.15695 57.8531 8.1919 57.8881C8.22686 57.9231 8.26882 57.9502 8.31503 57.9678C8.36124 57.9853 8.41065 57.9929 8.46 57.99L11.92 57.84L11.77 61.3C11.7671 61.3494 11.7747 61.3988 11.7922 61.445C11.8098 61.4912 11.8369 61.5331 11.8719 61.5681C11.9069 61.6031 11.9488 61.6302 11.995 61.6478C12.0412 61.6653 12.0906 61.6729 12.14 61.67L14.57 61.6L15.09 64.55V64.57Z" fill="#4B4B4B"/>
</g>
<defs>
<clipPath id="clip0_1_10">
<rect width="69.85" height="69.95" fill="white"/>
</clipPath>
</defs>
</svg>
